<?xml version="1.0" encoding="UTF-8" standalone="no"?>
<!-- Created with Inkscape (http://www.inkscape.org/) -->

<svg
   xmlns:dc="http://purl.org/dc/elements/1.1/"
   xmlns:cc="http://creativecommons.org/ns#"
   xmlns:rdf="http://www.w3.org/1999/02/22-rdf-syntax-ns#"
   xmlns:svg="http://www.w3.org/2000/svg"
   xmlns="http://www.w3.org/2000/svg"
   xmlns:xlink="http://www.w3.org/1999/xlink"
   xmlns:sodipodi="http://sodipodi.sourceforge.net/DTD/sodipodi-0.dtd"
   xmlns:inkscape="http://www.inkscape.org/namespaces/inkscape"
   width="25"
   height="41"
   viewBox="0 0 25 41.000001"
   id="svg3422"
   version="1.1"
   inkscape:version="0.91 r13725"
   sodipodi:docname="glyph-marker-icon.svg"
   inkscape:export-filename="/home/rodolphe/Code/Divers/mod-webui/module/plugins/worldmap/htdocs/img/glyph-marker-icon-ack.png"
   inkscape:export-xdpi="90"
   inkscape:export-ydpi="90">
  <defs
     id="defs3424">
    <linearGradient
       xlink:href="#a"
       id="c"
       gradientUnits="userSpaceOnUse"
       gradientTransform="translate(-299.63171,23.185368)"
       x1="445.30099"
       y1="541.28601"
       x2="445.30099"
       y2="503.72" />
    <linearGradient
       id="a">
      <stop
         offset="0"
         stop-color="#126fc6"
         id="stop12" />
      <stop
         offset="1"
         stop-color="#4c9cd1"
         id="stop14" />
    </linearGradient>
    <linearGradient
       xlink:href="#b"
       id="d"
       gradientUnits="userSpaceOnUse"
       gradientTransform="translate(-208.05171,23.184368)"
       x1="351.74799"
       y1="522.77399"
       x2="351.74799"
       y2="503.72101" />
    <linearGradient
       id="b">
      <stop
         offset="0"
         stop-color="#2e6c97"
         id="stop7" />
      <stop
         offset="1"
         stop-color="#3883b7"
         id="stop9" />
    </linearGradient>
    <linearGradient
       inkscape:collect="always"
       xlink:href="#a"
       id="linearGradient4230"
       gradientUnits="userSpaceOnUse"
       gradientTransform="translate(-346.74379,-34.990911)"
       x1="445.30099"
       y1="541.28601"
       x2="445.30099"
       y2="503.72" />
    <linearGradient
       inkscape:collect="always"
       xlink:href="#b"
       id="linearGradient4232"
       gradientUnits="userSpaceOnUse"
       gradientTransform="translate(-255.16379,-34.991911)"
       x1="351.74799"
       y1="522.77399"
       x2="351.74799"
       y2="503.72101" />
  </defs>
  <sodipodi:namedview
     id="base"
     pagecolor="#ffffff"
     bordercolor="#666666"
     borderopacity="1.0"
     inkscape:pageopacity="0.0"
     inkscape:pageshadow="2"
     inkscape:zoom="12.821304"
     inkscape:cx="78.520951"
     inkscape:cy="54.834823"
     inkscape:document-units="px"
     inkscape:current-layer="layer1"
     showgrid="false"
     units="px"
     fit-margin-top="0"
     fit-margin-left="0"
     fit-margin-right="0"
     fit-margin-bottom="0"
     inkscape:window-width="1920"
     inkscape:window-height="1139"
     inkscape:window-x="0"
     inkscape:window-y="25"
     inkscape:window-maximized="1">
    <inkscape:grid
       type="xygrid"
       id="grid3454" />
  </sodipodi:namedview>
  <metadata
     id="metadata3427">
    <rdf:RDF>
      <cc:Work
         rdf:about="">
        <dc:format>image/svg+xml</dc:format>
        <dc:type
           rdf:resource="http://purl.org/dc/dcmitype/StillImage" />
        <dc:title />
      </cc:Work>
    </rdf:RDF>
  </metadata>
  <g
     inkscape:label="Capa 1"
     inkscape:groupmode="layer"
     id="layer1"
     transform="translate(-133.16429,-525.76147)">
    <path
       d="m 145.75829,527.08437 c -6.573,0 -12.044,5.691 -12.044,11.866 0,2.778 1.564,6.308 2.694,8.746 l 9.306,17.872 9.262,-17.872 c 1.13,-2.438 2.738,-5.791 2.738,-8.746 0,-6.175 -5.383,-11.866 -11.956,-11.866 z"
       id="path46"
       inkscape:connector-curvature="0"
       style="fill:#bababa;stroke:#ababab;stroke-width:1.10000002;stroke-linecap:round;stroke-opacity:1;fill-opacity:1"
       sodipodi:nodetypes="sscccss"
       inkscape:export-xdpi="90"
       inkscape:export-ydpi="90" />
    <path
       d="m 145.74529,528.19137 c -5.944,0 -10.938,5.219 -10.938,10.75 0,2.359 1.443,5.832 2.563,8.25 l 0.031,0.031 8.313,15.969 8.25,-15.969 0.031,-0.031 c 1.135,-2.448 2.625,-5.706 2.625,-8.25 0,-5.538 -4.931,-10.75 -10.875,-10.75 z"
       id="path70"
       inkscape:connector-curvature="0"
       style="fill:none;stroke:#ffffff;stroke-width:1.10000002;stroke-linecap:round;stroke-opacity:0.122"
       sodipodi:nodetypes="sscccccss"
       inkscape:export-xdpi="90"
       inkscape:export-ydpi="90" />
    <path
       sodipodi:nodetypes="sscccss"
       style="fill:#49afcd;stroke:#32a0c6;stroke-width:1.10000002;stroke-linecap:round;stroke-opacity:1;fill-opacity:1"
       inkscape:connector-curvature="0"
       id="path4202"
       d="m 185.10758,526.1921 c -6.573,0 -12.044,5.691 -12.044,11.866 0,2.778 1.564,6.308 2.694,8.746 l 9.306,17.872 9.262,-17.872 c 1.13,-2.438 2.738,-5.791 2.738,-8.746 0,-6.175 -5.383,-11.866 -11.956,-11.866 z" />
    <path
       sodipodi:nodetypes="sscccccss"
       style="fill:none;stroke:#ffffff;stroke-width:1.10000002;stroke-linecap:round;stroke-opacity:0.122"
       inkscape:connector-curvature="0"
       id="path4204"
       d="m 185.09458,527.2991 c -5.944,0 -10.938,5.219 -10.938,10.75 0,2.359 1.443,5.832 2.563,8.25 l 0.031,0.031 8.313,15.969 8.25,-15.969 0.031,-0.031 c 1.135,-2.448 2.625,-5.706 2.625,-8.25 0,-5.538 -4.931,-10.75 -10.875,-10.75 z" />
    <path
       d="m 220.53087,527.53051 c -6.573,0 -12.044,5.691 -12.044,11.866 0,2.778 1.564,6.308 2.694,8.746 l 9.306,17.872 9.262,-17.872 c 1.13,-2.438 2.738,-5.791 2.738,-8.746 0,-6.175 -5.383,-11.866 -11.956,-11.866 z"
       id="path4210"
       inkscape:connector-curvature="0"
       style="fill:#5bb75b;stroke:#4ca84c;stroke-width:1.10000002;stroke-linecap:round;fill-opacity:1;stroke-opacity:1"
       sodipodi:nodetypes="sscccss"
       inkscape:export-xdpi="90"
       inkscape:export-ydpi="90" />
    <path
       d="m 220.51787,528.63751 c -5.944,0 -10.938,5.219 -10.938,10.75 0,2.359 1.443,5.832 2.563,8.25 l 0.031,0.031 8.313,15.969 8.25,-15.969 0.031,-0.031 c 1.135,-2.448 2.625,-5.706 2.625,-8.25 0,-5.538 -4.931,-10.75 -10.875,-10.75 z"
       id="path4212"
       inkscape:connector-curvature="0"
       style="fill:none;stroke:#ffffff;stroke-width:1.10000002;stroke-linecap:round;stroke-opacity:0.122"
       sodipodi:nodetypes="sscccccss"
       inkscape:export-xdpi="90"
       inkscape:export-ydpi="90" />
    <path
       sodipodi:nodetypes="sscccss"
       style="fill:#da4f49;stroke:#da322c;stroke-width:1.10000002;stroke-linecap:round;stroke-opacity:1;fill-opacity:1"
       inkscape:connector-curvature="0"
       id="path4218"
       d="m 294.23271,527.97664 c -6.573,0 -12.044,5.691 -12.044,11.866 0,2.778 1.564,6.308 2.694,8.746 l 9.306,17.872 9.262,-17.872 c 1.13,-2.438 2.738,-5.791 2.738,-8.746 0,-6.175 -5.383,-11.866 -11.956,-11.866 z"
       inkscape:export-xdpi="90"
       inkscape:export-ydpi="90" />
    <path
       sodipodi:nodetypes="sscccccss"
       style="fill:none;stroke:#ffffff;stroke-width:1.10000002;stroke-linecap:round;stroke-opacity:0.122"
       inkscape:connector-curvature="0"
       id="path4220"
       d="m 294.21971,529.08364 c -5.944,0 -10.938,5.219 -10.938,10.75 0,2.359 1.443,5.832 2.563,8.25 l 0.031,0.031 8.313,15.969 8.25,-15.969 0.031,-0.031 c 1.135,-2.448 2.625,-5.706 2.625,-8.25 0,-5.538 -4.931,-10.75 -10.875,-10.75 z"
       inkscape:export-xdpi="90"
       inkscape:export-ydpi="90" />
    <path
       d="m 98.646208,468.90809 c -6.573,0 -12.044,5.691 -12.044,11.866 0,2.778 1.564,6.308 2.694,8.746 l 9.306,17.872 9.262002,-17.872 c 1.13,-2.438 2.738,-5.791 2.738,-8.746 0,-6.175 -5.383,-11.866 -11.956002,-11.866 z"
       id="path4226"
       inkscape:connector-curvature="0"
       style="fill:url(#linearGradient4230);stroke:url(#linearGradient4232);stroke-width:1.10000002;stroke-linecap:round"
       sodipodi:nodetypes="sscccss" />
    <path
       d="m 98.633208,470.01509 c -5.944,0 -10.938,5.219 -10.938,10.75 0,2.359 1.443,5.832 2.563,8.25 l 0.031,0.031 8.313,15.969 8.250002,-15.969 0.031,-0.031 c 1.135,-2.448 2.625,-5.706 2.625,-8.25 0,-5.538 -4.931,-10.75 -10.875002,-10.75 z"
       id="path4228"
       inkscape:connector-curvature="0"
       style="fill:none;stroke:#ffffff;stroke-width:1.10000002;stroke-linecap:round;stroke-opacity:0.122"
       sodipodi:nodetypes="sscccccss" />
    <path
       sodipodi:nodetypes="sscccss"
       style="fill:#faa732;stroke:#fa9814;stroke-width:1.10000002;stroke-linecap:round;fill-opacity:1;stroke-opacity:1"
       inkscape:connector-curvature="0"
       id="path4234"
       d="m 259.07711,528.1551 c -6.573,0 -12.044,5.691 -12.044,11.866 0,2.778 1.564,6.308 2.694,8.746 l 9.306,17.872 9.262,-17.872 c 1.13,-2.438 2.738,-5.791 2.738,-8.746 0,-6.175 -5.383,-11.866 -11.956,-11.866 z"
       inkscape:export-xdpi="90"
       inkscape:export-ydpi="90" />
    <path
       sodipodi:nodetypes="sscccccss"
       style="fill:none;stroke:#ffffff;stroke-width:1.10000002;stroke-linecap:round;stroke-opacity:0.122"
       inkscape:connector-curvature="0"
       id="path4236"
       d="m 259.06411,529.2621 c -5.944,0 -10.938,5.219 -10.938,10.75 0,2.359 1.443,5.832 2.563,8.25 l 0.031,0.031 8.313,15.969 8.25,-15.969 0.031,-0.031 c 1.135,-2.448 2.625,-5.706 2.625,-8.25 0,-5.538 -4.931,-10.75 -10.875,-10.75 z"
       inkscape:export-xdpi="90"
       inkscape:export-ydpi="90" />
    <path
       inkscape:export-ydpi="90"
       inkscape:export-xdpi="90"
       sodipodi:nodetypes="sscccccss"
       style="fill:none;stroke:#ffffff;stroke-width:1.10000002;stroke-linecap:round;stroke-opacity:0.122"
       inkscape:connector-curvature="0"
       id="path4158"
       d="m 221.23169,572.89431 c -5.944,0 -10.938,5.219 -10.938,10.75 0,2.359 1.443,5.832 2.563,8.25 l 0.031,0.031 8.313,15.969 8.25,-15.969 0.031,-0.031 c 1.135,-2.448 2.625,-5.706 2.625,-8.25 0,-5.538 -4.931,-10.75 -10.875,-10.75 z" />
    <rect
       style="color:#000000;display:inline;overflow:visible;visibility:visible;opacity:1;fill:#5bb75b;fill-opacity:1;fill-rule:nonzero;stroke:none;stroke-width:2.06220484;stroke-linecap:round;stroke-linejoin:miter;stroke-miterlimit:4;stroke-dasharray:none;stroke-dashoffset:0;stroke-opacity:1;marker:none;enable-background:accumulate"
       id="rect4160"
       width="35"
       height="30"
       x="168.16429"
       y="481.76147" />
    <rect
       y="481.63858"
       x="203.19394"
       height="30"
       width="35"
       id="rect4164"
       style="color:#000000;display:inline;overflow:visible;visibility:visible;opacity:1;fill:#2ca62c;fill-opacity:0.79912657;fill-rule:nonzero;stroke:none;stroke-width:2.06200004;stroke-linecap:round;stroke-linejoin:miter;stroke-miterlimit:4;stroke-dasharray:none;stroke-dashoffset:0;stroke-opacity:0.8;marker:none;enable-background:accumulate" />
  </g>
</svg>
